<svg xmlns="http://www.w3.org/2000/svg" xmlns:xlink="http://www.w3.org/1999/xlink" width="300" height="258" viewBox="0 0 300 258"><defs><path id="a" d="M0 43.15v171.7l74.975 42.923 74.975-42.924 75.51 42.923L300 214.85V43.15L224.925.228l-75.44 46.122L74.976.226z"/></defs><clipPath id="b"><use xlink:href="#a" overflow="visible"/></clipPath><path clip-path="url(#b)" fill-rule="evenodd" clip-rule="evenodd" fill="#FFF" d="M74.975 257.773l74.975-42.924 75.51 42.923v-85.85l-75.453 39.89-75.032-39.89z"/><g clip-path="url(#b)"><defs><path id="c" d="M74.975 257.773l74.975-42.924 75.51 42.923v-85.85H74.976z"/></defs><clipPath id="d"><use xlink:href="#c" overflow="visible"/></clipPath><path clip-path="url(#d)" fill-rule="evenodd" clip-rule="evenodd" fill="#FFF" d="M8.853 162.084l67.164 89.475 73.924-42.324 74.252 42.208 65.604-85.004-280.943-4.356zm216.608 95.69l-75.51-42.925-74.975 42.923L0 171.923l300-10.73-74.54 96.58z"/></g><g clip-path="url(#b)"><defs><path id="e" d="M0 43.15L149.95 129 300 43.15v171.7l-75.075 42.923v-85.85L149.95 214.85l-74.975-42.926v85.85L0 214.848z"/></defs><clipPath id="f"><use xlink:href="#e" overflow="visible"/></clipPath><path clip-path="url(#f)" fill-rule="evenodd" clip-rule="evenodd" fill="#FFF" d="M4.87 45.984v166.034l70.105 40.137 74.975-42.924 74.972 42.924 69.932-40.135.273-166.043L150.215-37.08 4.87 45.984zm300.003-5.66l-.29 177.355-79.656 45.713-74.978-42.926-74.976 42.924-79.843-45.71V40.317l155.09-88.633 154.653 88.64z"/></g><g clip-path="url(#b)"><defs><path id="g" d="M0 43.15L74.975.228l72.06 44.723 2.915 1.67L225.46.226 300 43.15 150 129z"/></defs><clipPath id="h"><use xlink:href="#g" overflow="visible"/></clipPath><path clip-path="url(#h)" fill-rule="evenodd" clip-rule="evenodd" fill="#FFF" d="M154.61599999999999 43.975L224.926.227 299.9 43.15 150 216.8 0 43.15 74.975.228l69.72 43.358-4.75 2.9-64.97-40.64-67.42 38.6 142.443 164.9 142.348-164.9-67.42-38.6-65.57 41.033"/></g><path clip-path="url(#b)" fill-rule="evenodd" clip-rule="evenodd" fill="#FFF" d="M303.207 129.957l-153.257 84.75-153.257-84.75 2.352-4.27 150.905 83.45 150.905-83.45z"/><path clip-path="url(#b)" fill-rule="evenodd" clip-rule="evenodd" fill="#FFF" d="M147.565 126.56h4.87v90.728h-4.87zM-.908 39.825L-3.32 44.06l75.854 43.352 4.695-2.933z"/><g clip-path="url(#b)" fill-rule="evenodd" clip-rule="evenodd" fill="#FFF"><path d="M77.41 90.277L149.455 129l72.974-38.58-73.023-43.98z"/><path d="M74.432.227L-.543 43.15 72.45 87.366l75.157-45.49 1.8-1.036 1.8 1.034 8.156 4.984 68.03 40.72 72.064-44.427L224.917.228"/></g><g clip-path="url(#b)" fill-rule="evenodd" clip-rule="evenodd" fill="#FFF"><path d="M228 87.557v-2.3l-1.43 1.453zM223 90.386V261h4V87.596z"/></g><path clip-path="url(#b)" fill-rule="evenodd" clip-rule="evenodd" fill="#FFF" d="M300.904 39.824l-78.33 44.896 4.818 2.857-4.962 2.844-4.78-2.878-67.433 38.65-67.98-38.85-4.69 2.934 72.673 41.533 153.1-87.753zM72.54 261h4.87l.065-170.294-4.943-2.702z"/></svg>